<svg width="564" height="225" viewBox="0 0 564 225" fill="none" xmlns="http://www.w3.org/2000/svg">
<g clip-path="url(#clip0)">
<path d="M473.27 35.4615H508.601V17.9229C508.601 17.7656 508.599 17.6116 508.596 17.4487C508.538 12.8075 506.654 8.37541 503.349 5.11037C500.045 1.84533 495.586 0.00961721 490.937 1.60312e-05C488.61 -0.0031395 486.305 0.459581 484.16 1.36082C482.015 2.26206 480.073 3.58353 478.448 5.24709C477.818 5.88485 477.238 6.56942 476.711 7.2949C474.462 10.3824 473.257 14.1051 473.27 17.9229V35.4615Z" fill="black"/>
<path d="M308.366 223.94C316.28 223.94 322.695 217.536 322.695 209.635C322.695 201.734 316.28 195.329 308.366 195.329C300.452 195.329 294.037 201.734 294.037 209.635C294.037 217.536 300.452 223.94 308.366 223.94Z" fill="#D0CDE1"/>
<path d="M358.805 223.94C366.719 223.94 373.134 217.536 373.134 209.635C373.134 201.734 366.719 195.329 358.805 195.329C350.891 195.329 344.476 201.734 344.476 209.635C344.476 217.536 350.891 223.94 358.805 223.94Z" fill="#D0CDE1"/>
<path d="M409.244 223.94C417.158 223.94 423.573 217.536 423.573 209.635C423.573 201.734 417.158 195.329 409.244 195.329C401.33 195.329 394.915 201.734 394.915 209.635C394.915 217.536 401.33 223.94 409.244 223.94Z" fill="#D0CDE1"/>
<path d="M120.351 189.951H50.5389L36.0949 223.398H10.0156L74.6121 80.7969H95.6761L160.473 223.398H134.594L120.351 189.951ZM111.725 169.922L85.4449 108.836L59.165 169.922H111.725Z" fill="#6C63FF"/>
<path d="M271.009 122.255V223.398H246.334V207.175C243.297 212.743 238.695 217.304 233.094 220.294C227.342 223.429 220.789 224.998 213.434 225C204.607 225 196.784 222.864 189.963 218.591C183.142 214.32 177.859 208.244 174.115 200.365C170.369 192.489 168.497 183.343 168.498 172.927C168.498 162.512 170.403 153.266 174.215 145.188C178.027 137.111 183.343 130.835 190.163 126.361C196.984 121.889 204.741 119.653 213.434 119.652C220.788 119.652 227.341 121.221 233.094 124.358C238.694 127.349 243.296 131.909 246.334 137.477V122.255H271.009ZM239.514 196.76C244.059 191.021 246.332 182.943 246.334 172.527C246.334 161.845 244.061 153.634 239.514 147.891C234.965 142.152 228.479 139.282 220.054 139.279C211.76 139.279 205.307 142.25 200.695 148.192C196.082 154.135 193.774 162.379 193.774 172.927C193.774 183.341 196.081 191.353 200.695 196.961C205.309 202.569 211.829 205.373 220.255 205.373C228.546 205.373 234.965 202.502 239.514 196.76Z" fill="#6C63FF"/>
<path d="M564 222.796H0V223.94H564V222.796Z" fill="#3F3D56"/>
<path d="M515.633 105.106C517 106.544 519.085 124.226 525.253 121.539C530.237 115.921 521.861 104.761 521.007 102.392L515.633 105.106Z" fill="#FFB8B8"/>
<path d="M507.851 82.2856L523.015 102.587L515.778 108.092L505.094 92.9521L507.851 82.2856Z" fill="#6C63FF"/>
<path d="M484.07 85.3824C484.07 85.3824 473.731 104.995 482.002 116.35C490.274 127.705 507.506 152.479 507.506 152.479C510.007 173.739 514.773 193.995 527.89 211.155L536.573 208.778L524.049 147.662C524.049 147.662 517.156 111.877 509.229 102.931L507.829 85.8352L484.07 85.3824Z" fill="black"/>
<path d="M483.726 114.286L476.833 148.35C470.953 152.036 458.73 188.714 453.951 201.427L463.275 204.888C473.556 188.679 497.243 146.122 502.681 128.049L483.726 114.286Z" fill="black"/>
<path d="M507.162 16.5655C506.891 32.3959 483.305 32.3934 483.036 16.565C483.307 0.735002 506.893 0.737476 507.162 16.5655Z" fill="#FFB8B8"/>
<path d="M498.545 24.8236C492.454 33.9436 492.617 37.1026 499.924 45.4687L488.895 37.5547C488.895 37.5547 480.968 37.5547 482.692 33.7698C484.415 29.9849 487.861 22.0709 487.861 22.0709L498.545 24.8236Z" fill="#FFB8B8"/>
<path d="M492.342 38.2429C492.342 38.2429 484.415 32.3935 480.624 36.1784C476.856 43.3827 480.647 74.9469 482.001 77.4686C483.726 80.2212 484.07 77.8126 483.726 80.9094C483.381 84.0062 482.003 86.4147 482.347 86.7588C482.692 87.1029 509.23 89.8556 509.23 89.8556C509.23 89.8556 507.162 80.2212 507.851 76.4363C508.54 72.6513 507.162 68.8664 507.162 67.4901C507.162 66.1137 509.23 60.2643 507.162 55.7912C505.094 51.3181 497.347 42.1178 497.347 42.1178L496.822 42.716L492.342 38.2429Z" fill="#6C63FF"/>
<path d="M472.352 112.221C473.114 114.362 467.052 133.846 474.764 133.899C482.601 130.332 479.034 114.754 479.245 111.877L472.352 112.221Z" fill="#FFB8B8"/>
<path d="M482.002 36.5225C482.002 36.5225 473.042 36.8666 473.042 47.5332C473.042 58.1998 469.94 77.1245 469.94 77.1245V113.941H481.658L479.934 79.1889L487.172 56.4794C487.172 56.4794 496.477 42.0278 482.002 36.5225Z" fill="#6C63FF"/>
<path d="M551.771 219.371C551.892 218.519 551.766 217.651 551.409 216.868C551.051 216.085 550.476 215.422 549.752 214.955L536.808 208.613L527.049 209.843L524.745 218.092C524.647 218.68 524.67 219.281 524.813 219.86C524.956 220.438 525.215 220.981 525.575 221.457C525.935 221.932 526.388 222.329 526.907 222.624C527.425 222.919 527.998 223.105 528.591 223.172L546.802 223.211C547.967 223.342 549.139 223.014 550.066 222.297C550.994 221.58 551.605 220.53 551.771 219.371Z" fill="black"/>
<path d="M467.131 222.167C467.82 221.651 468.346 220.948 468.648 220.142C468.949 219.336 469.013 218.461 468.832 217.62L464.17 203.998L456.399 197.978L448.926 202.184C448.441 202.531 448.032 202.973 447.723 203.482C447.414 203.992 447.213 204.559 447.131 205.15C447.049 205.74 447.088 206.34 447.245 206.915C447.403 207.489 447.677 208.026 448.049 208.491L460.897 221.375C461.629 222.291 462.689 222.886 463.853 223.034C465.017 223.181 466.193 222.871 467.131 222.167Z" fill="black"/>
<path d="M481.341 6.99255L484.56 17.2173L512.391 16.7235C512.296 13.1461 511.084 9.68769 508.925 6.8314C506.765 3.9751 503.766 1.86356 500.346 0.791749C496.926 -0.280066 493.256 -0.258631 489.849 0.853062C486.442 1.96476 483.467 4.11118 481.341 6.99251L481.341 6.99255Z" fill="black"/>
</g>
<defs>
<clipPath id="clip0">
<rect width="564" height="225" fill="white"/>
</clipPath>
</defs>
</svg>
