<svg width="564" height="306" viewBox="0 0 564 306" fill="none" xmlns="http://www.w3.org/2000/svg">
<g clip-path="url(#clip0)">
<path d="M83.8442 200.667C88.6089 196.832 94.0845 193.978 99.956 192.269C116.387 187.567 133.385 192.119 149.823 196.521C158.698 198.898 167.874 201.355 176.924 202.368C191.426 203.99 204.943 201.726 216.013 195.821C228.455 189.185 237.417 177.764 239.986 165.273C240.311 163.692 240.527 162.091 240.633 160.481C239.408 161.237 238.177 161.982 236.943 162.716C223.958 170.43 205.706 177.643 192.503 168.192C187.434 164.565 184.145 158.503 183.479 151.562C182.766 144.125 185.158 136.71 189.877 131.727C190.646 130.915 191.471 130.158 192.345 129.461C201.91 121.822 217.01 121.41 227.602 128.96C236.571 135.353 241.885 146.906 241.714 158.623C249.383 153.812 256.8 148.609 263.935 143.035L264.555 143.829C257.215 149.562 249.579 154.904 241.677 159.833C241.589 161.73 241.353 163.616 240.972 165.476C238.342 178.257 229.189 189.933 216.487 196.709C205.237 202.71 191.517 205.013 176.812 203.368C167.687 202.348 158.474 199.88 149.563 197.494C132.507 192.926 116.396 188.611 100.233 193.237C83.9862 197.887 70.8631 212.151 67.5759 228.732C64.2873 245.313 70.9748 263.509 84.2161 274.01L83.5909 274.799C70.0617 264.069 63.2291 245.477 66.5885 228.536C68.7597 217.587 75.1296 207.625 83.8442 200.667ZM240.694 159.26C241.074 147.643 235.89 136.104 227.017 129.78C215.855 121.823 199.521 123.009 190.608 132.419C186.085 137.194 183.795 144.314 184.481 151.466C185.119 158.117 188.256 163.915 193.088 167.374C205.85 176.508 223.701 169.412 236.429 161.85C237.856 161.002 239.278 160.139 240.694 159.26Z" fill="#3F3D56"/>
<path d="M140.12 286.371C217.505 286.371 280.239 283.441 280.239 279.827C280.239 276.214 217.505 273.284 140.12 273.284C62.7337 273.284 0 276.214 0 279.827C0 283.441 62.7337 286.371 140.12 286.371Z" fill="#D0CDE1"/>
<path d="M134.837 306C162.345 306 184.646 303.07 184.646 299.457C184.646 295.843 162.345 292.914 134.837 292.914C107.328 292.914 85.0276 295.843 85.0276 299.457C85.0276 303.07 107.328 306 134.837 306Z" fill="#D0CDE1"/>
<path d="M93.3292 142.672V146.699C93.3292 146.699 88.7894 167.752 95.8448 166.832C107.417 165.322 98.8635 148.209 98.8635 148.209V144.686L93.3292 142.672Z" fill="#FFB8B8"/>
<path d="M149.679 255.92L154.207 268.503L165.276 264.476L160.245 252.9L149.679 255.92Z" fill="#FFB8B8"/>
<path d="M122.007 268.503L118.989 279.576L130.56 283.099L131.063 271.523L122.007 268.503Z" fill="#FFB8B8"/>
<path d="M111.945 141.666L110.938 147.202C110.938 147.202 110.435 151.229 110.938 153.745C111.442 156.262 147.666 260.45 147.666 260.45L163.263 254.41L143.138 188.475L140.623 137.639L111.945 141.666Z" fill="black"/>
<path d="M131.566 140.659L129.554 215.151C129.554 215.151 125.026 220.184 126.032 223.707C127.038 227.23 123.517 256.423 123.517 256.423L120.498 271.019L133.579 275.046C133.579 275.046 136.095 261.959 138.107 260.45C140.12 258.94 151.691 213.641 151.691 210.621C151.691 207.601 160.244 140.659 160.244 140.659L139.113 132.103L131.566 140.659Z" fill="black"/>
<path d="M155.213 260.45C155.213 260.45 149.679 254.41 146.66 260.45C144.399 264.791 141.878 268.993 139.113 273.033C139.113 273.033 123.013 282.596 139.113 285.112C139.113 285.112 148.169 285.616 152.698 282.596C157.226 279.576 169.301 275.046 169.301 274.039C169.301 273.033 166.282 258.235 163.263 259.846C160.244 261.456 155.213 260.45 155.213 260.45Z" fill="black"/>
<path d="M127.542 277.059C127.542 277.059 123.014 270.516 118.989 275.046C114.964 279.576 109.932 292.662 109.932 292.662C109.932 292.662 100.876 306.252 114.964 305.748C129.051 305.245 130.057 300.212 130.057 300.212C130.057 300.212 132.07 287.126 132.07 286.622C132.07 286.119 131.063 280.945 131.063 280.945L127.542 277.059Z" fill="black"/>
<path d="M124.271 37.2266C132.052 37.2266 138.359 30.917 138.359 23.1336C138.359 15.3503 132.052 9.04065 124.271 9.04065C116.491 9.04065 110.184 15.3503 110.184 23.1336C110.184 30.917 116.491 37.2266 124.271 37.2266Z" fill="#FFB8B8"/>
<path d="M116.976 31.9418L118.988 48.0481L125.026 63.1477L138.107 47.5448V39.9949C138.107 39.9949 134.082 33.9551 135.088 28.9219L116.976 31.9418Z" fill="#FFB8B8"/>
<path d="M124.02 51.5712L116.976 48.5513L109.429 137.639L110.939 143.176C110.939 143.176 114.964 145.692 127.542 143.679C140.12 141.666 160.748 143.176 160.748 143.176L162.257 97.3734L137.604 43.5181L124.02 51.5712Z" fill="#D0CDE1"/>
<path d="M111.441 139.652C111.441 139.652 121.001 56.6045 120.498 55.0945C119.995 53.5845 111.441 49.4958 111.441 49.4958C111.441 49.4958 96.8509 59.1211 97.354 62.6443C97.8571 66.1676 106.913 140.659 106.913 140.659L111.441 139.652Z" fill="#6C63FF"/>
<path d="M149.679 133.613C149.679 133.613 134.585 74.724 134.082 61.6376C133.579 48.5513 133.579 47.0413 133.579 47.0413C133.579 47.0413 156.723 38.9882 164.773 47.0413L166.282 89.3203C166.282 89.3203 168.798 107.44 167.791 112.976C167.098 116.582 166.088 120.119 164.773 123.546C164.773 123.546 170.307 129.083 165.276 130.593C160.245 132.103 156.723 129.586 154.71 132.103C152.698 134.619 149.679 133.613 149.679 133.613Z" fill="#6C63FF"/>
<path d="M100.876 59.6244C100.876 59.6244 94.8386 59.6244 95.3417 66.6709C95.8448 73.7174 95.3417 106.433 95.3417 106.433C95.3417 106.433 90.8136 134.116 92.3229 136.129C93.8323 138.142 91.8198 144.686 91.8198 144.686L100.876 146.699C100.876 146.699 101.882 139.652 103.895 139.149C105.907 138.646 108.926 124.049 108.926 124.049L100.876 59.6244Z" fill="#6C63FF"/>
<path d="M168.798 121.533L166.487 125.735C166.487 125.735 150.641 138.359 158.461 143.032C166.282 147.706 173.829 130.593 173.829 130.593L176.344 126.063L168.798 121.533Z" fill="#FFB8B8"/>
<path d="M157.729 46.0347L164.772 47.0413C164.772 47.0413 172.822 52.5778 173.326 55.5978C173.829 58.6177 189.929 86.3003 189.929 86.3003C190.878 88.3537 191.392 90.5816 191.438 92.8435C191.438 96.3668 185.904 123.043 182.885 123.546C179.866 124.049 177.854 129.083 177.854 129.083L167.288 122.539C167.321 121.018 167.49 119.502 167.791 118.01C168.294 115.493 170.307 110.46 170.307 110.46L173.326 99.89C172.857 99.5384 172.477 99.0825 172.215 98.5583C171.953 98.0341 171.816 97.4561 171.816 96.8701C171.816 94.8568 163.263 84.2871 163.263 84.2871L157.729 46.0347Z" fill="#6C63FF"/>
<path d="M122.452 56.7099C122.452 56.7099 109.429 53.0813 110.435 50.5647C111.442 48.0481 112.448 47.5447 112.448 47.5447C112.448 47.5447 113.957 43.5182 115.467 43.5182C116.976 43.5182 118.268 42.2819 118.268 42.2819L124.02 51.5713L122.452 56.7099Z" fill="#D0CDE1"/>
<path d="M136.605 37.2266C136.605 37.2266 141.629 35.9683 143.641 37.4783C145.654 38.9883 147.163 38.9883 147.666 39.9949C148.169 41.0015 154.71 42.0082 152.698 43.5181C150.685 45.0281 124.02 51.5713 124.02 51.5713L136.598 42.5115L136.605 37.2266Z" fill="#D0CDE1"/>
<path d="M138.175 8.1383C135.928 4.48677 132.409 1.79598 128.297 0.583836L125.277 3.00085L126.452 0.181684C125.464 0.0309914 124.465 -0.0267919 123.467 0.00909766L120.749 3.50417L121.874 0.128815C119.516 0.421948 117.244 1.20064 115.202 2.4158C113.16 3.63096 111.392 5.25622 110.009 7.18909C106.551 12.1779 106.782 19.1126 110.184 24.1403C111.118 21.2696 111.436 18.579 112.37 15.7083C113.103 15.8084 113.847 15.812 114.582 15.7191L115.718 13.0673L116.035 15.6069C119.557 15.3 124.779 14.6263 128.118 14.0089L127.793 12.0606L129.735 13.6797C130.758 13.4441 131.365 13.2305 131.315 13.0673C133.798 17.0713 136.258 19.6287 138.74 23.6327C139.683 17.9849 141.346 13.2903 138.175 8.1383Z" fill="black"/>
<path d="M137.352 23.1336C137.908 23.1336 138.359 22.2322 138.359 21.1203C138.359 20.0084 137.908 19.1071 137.352 19.1071C136.797 19.1071 136.346 20.0084 136.346 21.1203C136.346 22.2322 136.797 23.1336 137.352 23.1336Z" fill="#FFB8B8"/>
<path d="M52.4353 279.692L51.8953 279.489C51.7766 279.445 39.967 274.918 34.4349 264.655C28.9025 254.391 31.6115 242.033 31.6395 241.909L31.767 241.347L32.3067 241.549C32.4253 241.594 44.2347 246.12 49.7671 256.384C55.2995 266.648 52.5905 279.006 52.5625 279.129L52.4353 279.692ZM35.3208 264.177C39.998 272.855 49.3303 277.303 51.6948 278.319C52.1444 275.783 53.5543 265.531 48.8812 256.862C44.2087 248.193 34.8727 243.738 32.5072 242.72C32.0574 245.257 30.648 255.508 35.3208 264.177Z" fill="#3F3D56"/>
<path d="M38.6628 261.055C48.6048 267.038 52.4338 278.924 52.4338 278.924C52.4338 278.924 40.1436 281.108 30.2016 275.124C20.2596 269.14 16.4307 257.255 16.4307 257.255C16.4307 257.255 28.7208 255.071 38.6628 261.055Z" fill="#57B894"/>
<path d="M255.083 149.386H485.102C528.676 149.386 564 124.54 564 80.9488V80.9487C564 37.3574 528.676 19.1886 485.102 19.1886H412.878C325.73 19.1886 255.083 62.203 255.083 149.385V149.386Z" fill="black"/>
<path d="M472.262 138.827H280.827V138.323C280.827 104.085 294.162 75.8766 319.39 56.7482C342.686 39.0843 374.818 29.7476 412.311 29.7476H472.262C491.383 29.7476 507.496 33.9506 518.86 41.902C531.73 50.9084 538.256 64.2366 538.256 81.5159C538.256 98.8827 531.559 113.531 518.889 123.878C507.086 133.518 490.527 138.827 472.262 138.827ZM281.834 137.82H472.262C511.133 137.82 537.25 115.193 537.25 81.5161C537.25 49.2561 513.563 30.7542 472.262 30.7542H412.311C349.369 30.7542 282.121 58.8964 281.834 137.82Z" fill="#6C63FF"/>
<path d="M379.857 63.3993H352.689V69.9425H379.857V63.3993Z" fill="#6C63FF"/>
<path d="M473.941 63.3993H464.382V69.9425H473.941V63.3993Z" fill="#6C63FF"/>
<path d="M493.06 63.3993H483.5V69.9425H493.06V63.3993Z" fill="#6C63FF"/>
<path d="M454.319 63.3993H389.417V69.9425H454.319V63.3993Z" fill="#6C63FF"/>
<path d="M345.645 105.678H318.476V112.221H345.645V105.678Z" fill="#6C63FF"/>
<path d="M439.729 105.678H430.169V112.221H439.729V105.678Z" fill="#6C63FF"/>
<path d="M458.847 105.678H449.288V112.221H458.847V105.678Z" fill="#6C63FF"/>
<path d="M420.107 105.678H355.204V112.221H420.107V105.678Z" fill="#6C63FF"/>
<path d="M457.841 77.9956H430.673V84.5388H457.841V77.9956Z" fill="#6C63FF"/>
<path d="M494.569 77.9956H467.401V84.5388H494.569V77.9956Z" fill="#6C63FF"/>
<path d="M513.688 77.9956H504.128V84.5388H513.688V77.9956Z" fill="#6C63FF"/>
<path d="M328.036 77.9956H318.476V84.5388H328.036V77.9956Z" fill="#6C63FF"/>
<path d="M347.154 77.9956H337.595V84.5388H347.154V77.9956Z" fill="#6C63FF"/>
<path d="M421.616 77.9956H356.714V84.5388H421.616V77.9956Z" fill="#6C63FF"/>
<path d="M374.323 98.6317H401.491V92.0886H374.323V98.6317Z" fill="#6C63FF"/>
<path d="M337.595 98.6317H364.764V92.0886H337.595V98.6317Z" fill="#6C63FF"/>
<path d="M318.476 98.6317H328.036V92.0886H318.476V98.6317Z" fill="#6C63FF"/>
<path d="M504.128 98.6317H513.688V92.0886H504.128V98.6317Z" fill="#6C63FF"/>
<path d="M485.01 98.6317H494.569V92.0886H485.01V98.6317Z" fill="#6C63FF"/>
<path d="M410.548 98.6317L475.45 98.6317V92.0886L410.548 92.0886V98.6317Z" fill="#6C63FF"/>
<path d="M86.0339 270.264H76.4746V277.814H86.0339V270.264Z" fill="#57B894"/>
<path d="M165.024 292.41H155.465V299.96H165.024V292.41Z" fill="#57B894"/>
</g>
<defs>
<clipPath id="clip0">
<rect width="564" height="306" fill="white"/>
</clipPath>
</defs>
</svg>
