<svg width="418" height="449" viewBox="0 0 418 449" fill="none" xmlns="http://www.w3.org/2000/svg">
<path d="M418 448.371H83.3484V449H418V448.371Z" fill="black"/>
<path d="M187.059 203.264C186.983 200.119 186.103 197.485 184.838 196.032L183.838 199.975V195.24C183.399 194.97 182.886 194.849 182.373 194.894C179.913 195.12 178.013 199.252 178.127 204.119C178.24 208.986 180.328 212.753 182.788 212.527C185.247 212.3 187.172 208.15 187.059 203.264Z" fill="#57B894"/>
<path opacity="0.1" d="M186.461 205.634C185.43 205.861 184.43 206.496 183.398 206.622C182.366 206.747 181.234 206.257 180.586 204.666C180.234 203.811 180.058 202.729 179.762 201.792C179.533 201.027 179.15 200.316 178.636 199.704C178.277 201.143 178.116 202.624 178.158 204.106C178.271 208.974 180.36 212.734 182.819 212.508C184.882 212.319 186.549 209.364 186.965 205.553C186.795 205.57 186.627 205.597 186.461 205.634Z" fill="black"/>
<path d="M391.423 170.758C389.221 168.551 386.749 167.23 384.831 167.048L386.799 170.57L383.56 167.117C383.057 167.225 382.601 167.489 382.258 167.872C380.628 169.758 382.1 174.035 385.541 177.487C388.982 180.939 393.09 182.229 394.713 180.367C396.336 178.506 394.845 174.192 391.423 170.758Z" fill="#57B894"/>
<path opacity="0.1" d="M392.593 172.878C392.002 173.745 391.712 174.896 391.052 175.695C390.391 176.493 389.234 176.921 387.667 176.223C386.818 175.846 385.944 175.179 385.088 174.708C384.395 174.306 383.626 174.051 382.83 173.959C383.563 175.252 384.469 176.439 385.522 177.487C388.963 180.939 393.071 182.229 394.694 180.367C396.053 178.808 395.235 175.531 392.907 172.475C392.792 172.601 392.687 172.735 392.593 172.878Z" fill="black"/>
<path d="M229.714 183.625L218.882 177.336C218.882 177.336 192.701 173.727 196.312 161.093C199.923 148.459 217.983 161.093 217.983 161.093L229.714 169.161V183.625Z" fill="#FFC1C7"/>
<path opacity="0.1" d="M229.714 183.625L218.882 177.336C218.882 177.336 192.701 173.727 196.312 161.093C199.923 148.459 217.983 161.093 217.983 161.093L229.714 169.161V183.625Z" fill="black"/>
<path d="M269.432 119.551C269.432 119.551 243.258 138.505 243.258 132.185C243.258 128.411 238.691 116.759 235.042 108.087C232.627 102.339 230.639 97.8933 230.639 97.8933L257.688 90.6741C256.856 95.0481 256.959 99.5485 257.99 103.88C259.585 110.409 263.698 116.042 269.432 119.551Z" fill="#FFC1C7"/>
<path d="M215.29 280.43C215.29 280.43 194.532 326.456 201.747 343.598C201.747 343.598 179.183 412.187 171.962 414.891C164.74 417.595 190.015 422.11 190.015 422.11C190.015 422.11 219.788 382.405 221.581 350.818C223.374 319.23 255.895 286.756 255.895 286.756L215.29 280.43Z" fill="#FFC1C7"/>
<path d="M263.098 299.132C263.098 299.132 274.83 337.039 290.178 347.868C290.178 347.868 321.775 400.207 317.227 416.451C317.227 416.451 335.281 419.161 336.186 416.451C336.186 416.451 328.059 359.596 308.2 337.039C288.341 314.482 297.418 287.385 297.418 287.385L263.098 299.132Z" fill="#FFC1C7"/>
<path d="M183.675 415.796C183.675 415.796 172.843 406.772 164.722 413.992C156.601 421.211 142.151 419.406 131.319 415.796C120.487 412.187 121.393 421.211 146.668 432.939C171.943 444.667 186.386 447.403 186.386 447.403C186.386 447.403 189.997 432.939 189.997 429.355C189.997 425.77 192.242 418.997 192.242 418.997L183.675 415.796Z" fill="#D0CDE1"/>
<path d="M326.304 414.646C326.304 414.646 315.472 408.357 313.667 420.06C311.861 431.763 285.68 439.014 285.68 439.014C285.68 439.014 273.043 450.742 311.861 447.113C350.68 443.485 347.968 436.285 347.968 436.285L335.677 412.929L326.304 414.646Z" fill="#D0CDE1"/>
<path d="M229.714 238.674C229.714 238.674 201.728 278.38 212.56 282.889C223.393 287.398 222.493 275.67 233.319 288.303C244.145 300.937 272.137 294.592 275.748 291.913C279.359 289.234 288.385 277.449 295.607 278.38C302.828 279.311 283.856 232.354 283.856 232.354L229.714 238.674Z" fill="#3F3D56"/>
<path opacity="0.1" d="M255.549 99.9874C251.687 103.591 248.957 109.703 243.258 109.703C240.44 109.707 237.649 109.158 235.042 108.087C232.627 102.339 230.639 97.8933 230.639 97.8933L257.688 90.6741C256.807 95.8432 254.625 96.3149 255.549 99.9874Z" fill="black"/>
<path d="M243.258 107.817C255.223 107.817 264.922 98.1202 264.922 86.159C264.922 74.1978 255.223 64.5013 243.258 64.5013C231.293 64.5013 221.593 74.1978 221.593 86.159C221.593 98.1202 231.293 107.817 243.258 107.817Z" fill="#FFC1C7"/>
<path d="M255.895 116.847C255.895 116.847 246.535 126.343 242.188 127.009C237.842 127.676 221.581 155.647 226.104 178.21C230.627 200.773 220.688 247.698 225.204 250.402C229.721 253.106 301.948 240.479 301.948 240.479L255.895 116.847Z" fill="#F2F2F2"/>
<path d="M264.922 112.332C264.922 112.332 248.674 106.917 243.258 135.794C237.842 164.671 230.62 140.309 230.62 177.298C230.62 214.288 227.909 227.839 232.426 259.42C236.942 291.001 240.547 291.007 235.13 301.836C229.714 312.665 292.902 309.961 308.251 289.203C323.599 268.444 303.734 190.838 295.613 179.103C287.492 167.369 287.486 131.279 281.145 122.255C279.25 119.592 276.836 117.341 274.048 115.635C271.26 113.93 268.156 112.806 264.922 112.332Z" fill="#6C63FF"/>
<path d="M264.438 288.97L256.443 278.971L230.922 157.213L248.076 125.204C249.525 122.498 251.609 120.184 254.148 118.459C256.688 116.734 259.607 115.65 262.657 115.3C265.69 114.927 268.769 115.306 271.621 116.402C274.473 117.499 277.011 119.28 279.013 121.588C303.841 149.849 316.302 237.48 316.818 241.196L316.868 241.548L314.352 248.095L301.142 277.695L264.438 288.97ZM258.959 277.789L265.4 285.838L299.142 275.437L311.824 247.025L314.082 241.196C313.189 235.046 300.501 150.119 276.968 123.343C275.231 121.379 273.044 119.864 270.594 118.928C268.144 117.992 265.504 117.662 262.899 117.967C260.294 118.273 257.801 119.203 255.634 120.68C253.467 122.157 251.69 124.137 250.454 126.449L233.772 157.597L258.959 277.789Z" fill="#2F2E41"/>
<path d="M209.855 167.382L186.398 146.522C186.146 146.295 185.983 145.985 185.94 145.648C185.897 145.311 185.977 144.969 186.166 144.686L186.455 144.246C186.556 144.09 186.689 143.957 186.847 143.859C187.005 143.76 187.182 143.698 187.367 143.677C187.552 143.655 187.739 143.674 187.915 143.734C188.091 143.793 188.252 143.891 188.386 144.02L209.774 163.828C210.02 164.052 210.218 164.323 210.356 164.626C210.494 164.928 210.569 165.255 210.577 165.587C210.584 165.92 210.524 166.25 210.4 166.559C210.276 166.867 210.091 167.147 209.855 167.382Z" fill="#6C63FF"/>
<path d="M209.856 167.381L186.398 146.522C186.146 146.295 185.983 145.985 185.94 145.648C185.897 145.31 185.977 144.969 186.166 144.686L186.455 144.246L209.799 165.174C209.953 165.312 210.078 165.48 210.165 165.668C210.252 165.855 210.299 166.059 210.304 166.266C210.31 166.472 210.273 166.678 210.195 166.87C210.118 167.062 210.003 167.236 209.856 167.381Z" fill="black"/>
<path d="M279.365 171.89C279.365 171.89 245.963 169.186 239.647 157.427C233.331 145.667 217.077 152.012 221.593 157.427C226.11 162.841 225.204 175.475 237.842 176.38C250.479 177.286 282.07 183.625 282.07 183.625L279.365 171.89Z" fill="#FFC1C7"/>
<path d="M315.472 241.378C315.472 241.378 292.902 243.183 287.486 266.646C282.07 290.108 257.701 278.38 257.701 278.38C257.701 278.38 254.989 339.743 294.707 324.406C334.425 309.068 343.458 280.185 343.458 276.575C343.458 272.966 316.378 251.308 315.472 241.378Z" fill="black"/>
<path opacity="0.1" d="M259.506 282.889C259.506 282.889 283.856 294.623 289.291 271.161C294.449 248.811 315.151 246.114 317.114 245.906C316.268 244.522 315.71 242.983 315.472 241.378C315.472 241.378 292.902 243.183 287.486 266.646C282.07 290.108 257.701 278.38 257.701 278.38C257.701 278.38 256.82 298.409 263.469 312.722C258.795 299.057 259.506 282.889 259.506 282.889Z" fill="black"/>
<path opacity="0.1" d="M343.263 277.952C343.369 277.507 343.435 277.052 343.458 276.594C343.458 273.506 323.637 257.2 317.347 246.34C318.68 254.729 337.099 270.733 343.263 277.952Z" fill="black"/>
<path d="M215.29 70.9658C214.032 74.915 218.102 78.9082 222.21 79.3232C226.318 79.7383 230.299 77.77 234.061 76.0092C237.823 74.2484 242.025 72.6008 246.044 73.6699C250.448 74.8332 253.379 78.9271 255.335 83.0146C257.043 86.5899 258.289 90.3683 259.04 94.2585C259.846 98.4215 260.217 103 263.079 106.144C265.941 109.288 270.69 110.137 275.031 110.118C279.371 110.099 283.762 109.489 287.945 110.558C296.248 112.722 301.388 120.991 304.351 129.021C307.313 137.052 309.094 145.799 314.459 152.484C318.932 158.068 325.455 161.608 331.991 164.545C335.287 166.023 338.703 167.4 342.301 167.74C345.899 168.079 349.761 167.243 352.365 164.778C355.303 162.024 356.247 157.823 357.046 153.886C358.209 148.176 359.373 142.309 358.411 136.555C357.153 129.009 352.303 122.374 351.189 114.797C350.107 107.427 352.655 99.9873 352.397 92.5417C351.963 80.0779 342.785 68.3938 330.752 64.9791C326.348 63.7214 321.725 63.495 317.498 61.8349C311.987 59.6402 307.741 55.2256 303.237 51.3708C292.472 42.1781 279.62 35.7594 265.803 32.675C256.531 30.6187 245.56 30.5872 239.005 37.4354C236.345 40.2212 234.602 43.9881 231.205 45.8495C229.463 46.8116 227.462 47.1575 225.588 47.8052C216.328 50.9872 211.007 62.5203 214.598 71.6009" fill="black"/>
<path opacity="0.1" d="M347.748 158.716C344.15 158.376 340.734 156.999 337.438 155.521C330.902 152.585 324.386 149.044 319.907 143.46C314.541 136.775 312.755 128.034 309.798 119.998C306.842 111.961 301.696 103.698 293.393 101.534C289.209 100.44 284.8 101.075 280.478 101.094C276.157 101.113 271.452 100.314 268.526 97.1199C265.601 93.9253 265.293 89.3976 264.488 85.2346C263.737 81.3442 262.492 77.5657 260.783 73.9907C258.827 69.9032 255.883 65.8157 251.492 64.646C247.472 63.577 243.27 65.2245 239.509 66.9853C235.747 68.7461 231.797 70.7144 227.657 70.2994C223.518 69.8843 219.48 65.8974 220.738 61.9419L220.109 62.5708C218.756 59.0131 218.606 55.1102 219.681 51.459C214.353 56.4584 211.969 64.7278 214.687 71.5822L215.316 70.9534C214.057 74.9026 218.127 78.8958 222.235 79.3108C226.343 79.7259 230.325 77.7576 234.086 75.9968C237.848 74.236 242.05 72.5884 246.07 73.6574C250.473 74.8208 253.404 78.9146 255.361 83.0022C257.069 86.5775 258.314 90.3559 259.066 94.246C259.871 98.409 260.242 102.987 263.104 106.131C265.966 109.276 270.716 110.125 275.056 110.106C279.396 110.087 283.787 109.477 287.97 110.546C296.274 112.709 301.413 120.979 304.376 129.009C307.338 137.039 309.119 145.787 314.484 152.471C318.957 158.056 325.48 161.596 332.016 164.533C335.312 166.011 338.728 167.388 342.326 167.727C345.924 168.067 349.786 167.231 352.391 164.765C354.605 162.69 355.687 159.785 356.429 156.792C353.828 158.376 350.775 159.052 347.748 158.716Z" fill="black"/>
<path d="M255.895 124.965C255.895 124.965 253.184 144.818 263.117 149.333C273.049 153.849 280.264 169.161 280.264 169.161L272.143 170.966C272.143 170.966 269.432 183.599 276.654 187.209C283.875 190.819 303.734 187.209 303.734 187.209C303.734 187.209 312.767 182.694 305.539 168.256C298.312 153.817 277.566 122.261 277.566 122.261C277.566 122.261 266.727 110.527 255.895 124.965Z" fill="#6C63FF"/>
<path d="M258.537 92.982C260.938 92.982 262.884 90.0651 262.884 86.4671C262.884 82.869 260.938 79.9521 258.537 79.9521C256.137 79.9521 254.191 82.869 254.191 86.4671C254.191 90.0651 256.137 92.982 258.537 92.982Z" fill="#FFC1C7"/>
<path d="M258.537 89.3598C259.736 89.3598 260.707 88.3885 260.707 87.1903C260.707 85.9921 259.736 85.0208 258.537 85.0208C257.339 85.0208 256.367 85.9921 256.367 87.1903C256.367 88.3885 257.339 89.3598 258.537 89.3598Z" fill="#F2F2F2"/>
<path d="M257.697 90.9361C258.326 89.6857 258.401 88.4532 257.864 88.1833C257.327 87.9133 256.382 88.7081 255.752 89.9585C255.123 91.2089 255.049 92.4414 255.586 92.7114C256.123 92.9813 257.068 92.1865 257.697 90.9361Z" fill="#F2F2F2"/>
<path d="M348.094 22.7833C348.019 19.6704 347.138 17.0041 345.874 15.5515L344.874 19.4944V14.7591C344.435 14.4898 343.921 14.3686 343.408 14.4132C340.948 14.6396 339.049 18.7712 339.162 23.6385C339.275 28.5058 341.364 32.2726 343.823 32.0463C346.283 31.8199 348.208 27.6694 348.094 22.7833Z" fill="#57B894"/>
<path opacity="0.1" d="M347.497 25.1541C346.465 25.3805 345.465 26.0156 344.433 26.1414C343.402 26.2671 342.269 25.7766 341.621 24.1856C341.269 23.3304 341.093 22.2488 340.797 21.3118C340.569 20.5462 340.186 19.8356 339.671 19.224C339.312 20.6627 339.151 22.1437 339.193 23.626C339.307 28.4933 341.395 32.2538 343.855 32.0274C345.918 31.8388 347.585 28.8832 348 25.0723C347.831 25.0898 347.663 25.1171 347.497 25.1541Z" fill="black"/>
<path d="M393.7 279.317C396.55 278.059 398.669 276.217 399.525 274.487L395.531 275.066L399.934 273.28C400.013 272.773 399.929 272.253 399.695 271.796C398.544 269.614 393.996 269.444 389.542 271.419C385.088 273.393 382.409 276.758 383.56 278.965C384.711 281.172 389.24 281.292 393.7 279.317Z" fill="#57B894"/>
<path opacity="0.1" d="M391.297 279.663C390.668 278.801 389.724 278.122 389.215 277.217C388.705 276.311 388.718 275.078 389.938 273.871C390.567 273.242 391.523 272.613 392.272 271.985C392.896 271.484 393.408 270.858 393.775 270.148C392.308 270.373 390.877 270.797 389.523 271.406C385.07 273.381 382.39 276.745 383.541 278.952C384.51 280.782 387.869 281.197 391.555 280.116C391.478 279.96 391.392 279.809 391.297 279.663Z" fill="black"/>
<path d="M151.518 308.244C154.367 306.986 156.487 305.144 157.343 303.415L153.348 303.993L157.752 302.207C157.831 301.7 157.747 301.18 157.513 300.723C156.362 298.541 151.814 298.371 147.36 300.346C142.906 302.32 140.227 305.685 141.378 307.892C142.529 310.099 147.058 310.219 151.518 308.244Z" fill="#57B894"/>
<path opacity="0.1" d="M149.115 308.59C148.486 307.728 147.542 307.049 147.033 306.144C146.523 305.238 146.536 304.006 147.756 302.798C148.385 302.169 149.341 301.541 150.09 300.912C150.713 300.411 151.225 299.785 151.593 299.075C150.126 299.301 148.695 299.724 147.341 300.333C142.887 302.308 140.208 305.672 141.359 307.879C142.328 309.709 145.687 310.124 149.373 309.043C149.296 308.887 149.21 308.736 149.115 308.59Z" fill="black"/>
<path d="M119.518 23.8964H39.6298V31.4426H119.518V23.8964Z" fill="#D0CDE1"/>
<path opacity="0.1" d="M155.689 121.287L139.472 93.07H0V0.628784H183.681V93.07H155.689V121.287ZM0.629044 92.4411H139.837L155.059 118.935V92.4411H183.052V1.25764H0.629044V92.4411Z" fill="black"/>
<path d="M155.689 120.658L139.472 92.4412H0V0H183.681V92.4412H155.689V120.658ZM0.629044 91.8123H139.837L155.059 118.306V91.8123H183.052V0.628852H0.629044V91.8123Z" fill="black"/>
<path d="M20.7585 38.0456C26.4908 38.0456 31.1377 33.4 31.1377 27.6695C31.1377 21.939 26.4908 17.2935 20.7585 17.2935C15.0262 17.2935 10.3792 21.939 10.3792 27.6695C10.3792 33.4 15.0262 38.0456 20.7585 38.0456Z" fill="#D0CDE1"/>
<path d="M150.656 74.5189C152.741 74.5189 154.43 72.8296 154.43 70.7458C154.43 68.6619 152.741 66.9727 150.656 66.9727C148.572 66.9727 146.882 68.6619 146.882 70.7458C146.882 72.8296 148.572 74.5189 150.656 74.5189Z" fill="#6C63FF"/>
<path d="M160.092 74.5189C162.176 74.5189 163.866 72.8296 163.866 70.7458C163.866 68.6619 162.176 66.9727 160.092 66.9727C158.007 66.9727 156.318 68.6619 156.318 70.7458C156.318 72.8296 158.007 74.5189 160.092 74.5189Z" fill="#6C63FF"/>
<path d="M169.527 74.5189C171.612 74.5189 173.302 72.8296 173.302 70.7458C173.302 68.6619 171.612 66.9727 169.527 66.9727C167.443 66.9727 165.753 68.6619 165.753 70.7458C165.753 72.8296 167.443 74.5189 169.527 74.5189Z" fill="#6C63FF"/>
</svg>
